<svg viewBox="0 0 1024 1024" xmlns="http://www.w3.org/2000/svg"><path d="M941.8 913.6l-78.3-78.4c58.1-72.2 53.7-178.2-13.4-245.3a184 184 0 0 0-260.2 0c-71.9 71.8-71.9 188.4 0 260.2a184.1 184.1 0 0 0 225.3 27.4l81.4 81.3a3.9 3.9 0 0 0 5.6 0l39.6-39.6a3.9 3.9 0 0 0 0-5.6zM799.2 799.2A112 112 0 1 1 832 720a111.6 111.6 0 0 1-32.8 79.2zM436 548H168a40 40 0 0 0-40 40v268a40 40 0 0 0 40 40h268a40 40 0 0 0 40-40V588a40 40 0 0 0-40-40z m-32 276H200V620h204z m32-696H168a40 40 0 0 0-40 40v268a40 40 0 0 0 40 40h268a40 40 0 0 0 40-40V168a40 40 0 0 0-40-40z m-32 276H200V200h204z m184 72h268a40 40 0 0 0 40-40V168a40 40 0 0 0-40-40H588a40 40 0 0 0-40 40v268a40 40 0 0 0 40 40z m32-276h204v204H620z"></path></svg>